<?xml version="1.0" encoding="UTF-8" standalone="no"?>
<!DOCTYPE svg PUBLIC "-//W3C//DTD SVG 1.1//EN" "http://www.w3.org/Graphics/SVG/1.1/DTD/svg11.dtd">
<svg xmlns="http://www.w3.org/2000/svg" version="1.1" viewBox="0.00 0.00 1773.00 1773.00" width="1872.00" height="1872.00">
<path fill="#e2500c" d="
  M 837.38 0.00
  L 837.74 0.15
  C 838.06 0.29 838.12 0.71 837.86 0.94
  C 817.42 18.61 801.15 31.66 769.42 57.26
  C 750.05 72.89 734.09 86.41 721.53 97.82
  C 618.79 191.18 536.92 306.96 483.96 435.27
  C 483.85 435.52 483.85 435.72 483.96 435.87
  C 484.08 436.03 484.29 436.08 484.47 436.00
  C 500.68 428.90 518.32 422.22 536.23 416.37
  C 549.59 412.00 563.58 407.45 575.83 401.10
  C 577.81 400.07 579.90 398.32 582.09 395.84
  C 584.90 392.66 588.02 388.61 591.45 383.70
  C 599.51 372.17 605.32 363.08 613.32 353.14
  C 643.73 315.33 678.14 280.10 714.52 248.53
  C 758.05 210.76 804.23 177.61 853.07 149.09
  C 875.02 136.27 898.64 124.31 923.95 113.21
  C 988.94 84.71 1056.88 67.97 1127.75 63.00
  C 1180.77 59.28 1233.94 61.54 1287.25 69.79
  C 1295.10 71.00 1303.10 72.17 1311.25 73.29
  C 1312.37 73.44 1313.56 73.71 1314.82 74.09
  C 1314.91 74.12 1314.89 74.25 1314.80 74.26
  C 1307.27 75.02 1299.67 75.60 1292.00 75.99
  C 1278.75 76.68 1263.67 77.68 1246.75 78.97
  C 1231.47 80.14 1216.50 82.86 1197.77 86.03
  C 1165.23 91.53 1131.65 98.87 1097.03 108.05
  C 1001.17 133.49 911.24 173.63 830.90 231.47
  C 825.26 235.54 815.81 242.73 802.54 253.04
  C 782.08 268.95 758.02 286.92 737.85 305.72
  C 737.58 305.97 737.76 306.42 738.13 306.41
  C 767.94 305.98 796.23 305.33 823.01 304.47
  C 830.42 304.24 836.36 303.62 840.84 302.61
  C 844.15 301.86 848.82 300.01 854.84 297.05
  C 864.28 292.40 875.79 285.28 886.29 280.80
  C 895.21 277.00 900.18 274.89 901.21 274.47
  C 972.56 245.20 1046.75 225.39 1123.77 215.04
  C 1165.24 209.47 1206.23 207.27 1246.72 208.45
  C 1332.18 210.95 1413.15 229.07 1489.64 262.80
  C 1547.53 288.32 1601.92 322.67 1651.47 363.10
  C 1651.59 363.20 1651.62 363.36 1651.54 363.49
  C 1651.47 363.62 1651.31 363.67 1651.17 363.62
  C 1640.16 359.35 1628.92 354.69 1617.45 349.63
  C 1594.57 339.53 1562.17 324.55 1533.70 314.61
  C 1382.29 261.74 1216.45 247.51 1059.54 282.07
  C 986.22 298.22 915.13 326.21 851.78 366.26
  C 778.51 412.59 719.19 472.54 673.82 546.13
  C 673.69 546.34 673.93 546.57 674.13 546.44
  C 674.20 546.39 674.34 546.27 674.57 546.06
  C 717.32 506.16 761.00 469.56 809.45 437.72
  C 834.42 421.31 860.80 406.69 888.61 393.88
  C 946.32 367.28 1009.57 351.69 1072.76 346.05
  C 1175.49 336.89 1279.08 352.28 1375.69 388.08
  C 1513.59 439.19 1636.46 531.65 1715.21 656.97
  C 1727.52 676.57 1740.88 697.59 1752.06 718.69
  C 1760.62 734.84 1767.52 751.48 1772.75 768.61
  C 1772.79 768.72 1772.73 768.85 1772.62 768.90
  C 1772.51 768.95 1772.38 768.91 1772.32 768.81
  C 1757.16 745.25 1740.95 723.00 1723.70 702.06
  C 1709.48 684.81 1691.90 665.96 1670.97 645.52
  C 1630.49 605.99 1587.05 569.60 1540.64 536.35
  C 1455.50 475.34 1357.92 431.31 1255.27 410.83
  C 1158.26 391.48 1062.18 394.53 967.02 419.98
  C 881.59 442.82 803.41 485.99 740.21 547.46
  C 700.17 586.40 666.39 632.10 640.23 681.00
  C 601.12 754.12 578.63 836.90 584.77 920.11
  C 587.67 959.42 596.81 997.17 612.20 1033.36
  C 648.07 1117.74 715.94 1187.26 798.04 1227.98
  C 829.65 1243.66 864.23 1254.58 901.77 1260.74
  C 962.21 1270.65 1026.44 1266.68 1084.83 1247.08
  C 1162.35 1221.05 1229.24 1171.78 1277.06 1105.29
  C 1342.56 1014.22 1364.50 890.02 1317.66 785.67
  C 1313.00 775.28 1307.29 765.63 1302.18 755.31
  C 1299.31 749.53 1295.53 742.01 1295.77 736.72
  C 1295.81 735.89 1296.61 735.30 1297.41 735.52
  C 1300.08 736.24 1302.42 737.68 1304.41 739.83
  C 1339.48 777.76 1368.10 819.20 1390.28 864.16
  C 1426.18 936.94 1442.60 1019.01 1441.76 1100.27
  C 1441.76 1100.54 1442.12 1100.64 1442.25 1100.40
  C 1453.69 1080.35 1463.64 1059.42 1472.11 1037.62
  C 1476.66 1025.90 1480.57 1013.71 1482.28 1001.26
  C 1482.63 998.70 1482.77 993.87 1482.70 986.77
  C 1482.33 953.41 1473.94 919.02 1463.74 887.28
  C 1456.35 864.27 1446.89 838.39 1435.35 809.63
  C 1417.64 765.51 1393.91 725.22 1362.81 690.29
  C 1328.74 652.03 1286.15 621.03 1239.78 599.22
  C 1230.27 594.75 1219.50 590.10 1207.48 585.27
  C 1189.21 577.94 1168.05 569.59 1144.00 560.22
  C 1143.88 560.17 1143.82 560.05 1143.84 559.93
  C 1143.87 559.81 1143.98 559.72 1144.10 559.73
  C 1150.38 560.03 1157.01 560.62 1164.00 561.49
  C 1195.97 565.46 1230.62 572.90 1267.95 583.82
  C 1288.10 589.71 1305.92 596.22 1321.43 603.36
  C 1382.90 631.65 1438.21 671.49 1487.25 718.75
  C 1538.63 768.25 1581.56 824.06 1616.03 886.19
  C 1641.82 932.68 1661.09 984.24 1675.06 1035.96
  C 1704.93 1146.56 1706.59 1263.90 1672.72 1373.70
  C 1671.23 1378.53 1669.43 1383.39 1667.33 1388.30
  C 1667.30 1388.38 1667.21 1388.42 1667.13 1388.40
  C 1667.04 1388.38 1666.98 1388.31 1666.99 1388.22
  C 1672.76 1306.18 1669.39 1223.78 1654.37 1142.89
  C 1644.41 1089.28 1628.70 1038.17 1607.23 989.56
  C 1598.00 968.65 1586.92 946.79 1573.99 923.98
  C 1546.43 875.36 1518.57 830.99 1483.31 790.43
  C 1472.62 778.14 1462.22 766.39 1452.09 755.18
  C 1452.03 755.11 1451.92 755.10 1451.85 755.16
  C 1451.77 755.21 1451.75 755.32 1451.80 755.40
  C 1465.66 778.48 1478.65 801.31 1489.63 824.65
  C 1495.16 836.42 1500.44 848.97 1505.47 862.31
  C 1537.99 948.63 1552.75 1041.20 1551.42 1133.25
  C 1549.96 1234.55 1531.14 1332.55 1494.97 1427.24
  C 1484.98 1453.39 1473.80 1478.38 1461.42 1502.19
  C 1415.81 1589.94 1353.74 1664.36 1275.21 1725.47
  C 1259.53 1737.67 1242.29 1749.51 1223.48 1760.99
  C 1216.37 1765.33 1209.15 1769.25 1201.83 1772.75
  C 1201.74 1772.79 1201.64 1772.76 1201.59 1772.69
  C 1201.53 1772.61 1201.54 1772.50 1201.61 1772.44
  C 1302.48 1677.42 1383.44 1561.93 1434.68 1432.98
  C 1469.07 1346.44 1488.66 1255.08 1492.49 1162.03
  C 1494.22 1119.79 1492.90 1079.99 1490.31 1038.00
  C 1490.30 1037.76 1489.97 1037.71 1489.88 1037.93
  C 1479.32 1064.70 1469.04 1083.73 1453.20 1115.91
  C 1446.82 1128.88 1442.00 1139.90 1438.74 1148.98
  C 1437.45 1152.57 1436.42 1157.12 1435.66 1162.64
  C 1434.67 1169.77 1433.42 1179.91 1431.90 1193.06
  C 1431.62 1195.51 1431.13 1198.13 1430.43 1200.90
  C 1387.37 1371.71 1284.25 1519.98 1138.10 1618.59
  C 1025.62 1694.48 896.59 1743.92 761.25 1757.18
  C 702.74 1762.92 644.39 1761.72 586.22 1753.59
  C 564.26 1750.52 542.93 1745.82 522.23 1739.49
  C 512.40 1736.48 497.89 1732.00 478.72 1726.07
  C 462.57 1721.07 450.58 1717.84 442.75 1716.37
  C 441.56 1716.14 440.43 1715.82 439.36 1715.40
  C 439.12 1715.30 439.18 1714.95 439.44 1714.94
  C 477.08 1714.04 511.37 1716.54 551.25 1719.26
  C 574.05 1720.81 597.13 1721.25 620.50 1720.57
  C 696.75 1718.33 769.06 1709.77 841.31 1691.56
  C 930.94 1668.97 1014.27 1632.18 1091.31 1581.19
  C 1091.66 1580.96 1091.54 1580.43 1091.13 1580.37
  C 1073.06 1577.89 1055.12 1575.03 1037.31 1571.79
  C 1016.63 1568.03 989.92 1561.44 972.86 1557.86
  C 953.43 1553.79 932.24 1550.14 914.75 1549.96
  C 905.66 1549.87 894.07 1550.96 879.99 1553.24
  C 861.74 1556.19 842.88 1560.15 823.55 1562.65
  C 807.37 1564.74 790.77 1566.42 773.75 1567.71
  C 738.65 1570.36 705.90 1571.63 675.50 1571.51
  C 655.93 1571.43 634.09 1570.65 609.96 1569.17
  C 545.48 1565.20 482.60 1553.53 419.73 1535.02
  C 339.25 1511.33 262.50 1476.93 192.67 1431.09
  C 159.97 1409.61 132.20 1384.20 102.90 1357.26
  C 102.82 1357.19 102.89 1357.07 102.99 1357.09
  C 103.74 1357.27 104.35 1357.46 104.81 1357.67
  C 125.36 1367.06 148.63 1377.96 174.62 1390.39
  C 201.29 1403.14 228.93 1415.07 257.56 1426.18
  C 339.45 1457.94 420.95 1481.86 505.28 1500.44
  C 519.49 1503.57 534.17 1506.12 548.59 1507.67
  C 598.30 1513.00 648.21 1515.85 698.34 1516.20
  C 698.75 1516.20 698.94 1515.70 698.64 1515.43
  C 679.63 1498.67 659.67 1481.56 638.76 1464.09
  C 632.41 1458.79 627.03 1454.03 622.62 1449.82
  C 611.75 1439.44 603.34 1430.94 590.65 1425.87
  C 580.56 1421.84 570.12 1417.94 559.34 1414.17
  C 532.60 1404.82 497.97 1394.26 469.63 1383.62
  C 454.05 1377.77 439.68 1371.43 422.46 1363.56
  C 325.67 1319.37 235.35 1261.12 159.44 1187.08
  C 126.73 1155.19 97.66 1120.41 72.23 1082.76
  C 59.91 1064.51 48.80 1045.13 38.90 1024.61
  C 25.51 996.86 12.77 967.50 0.69 936.51
  C 0.58 936.23 0.94 936.00 1.15 936.22
  C 9.53 945.15 16.79 953.51 22.92 961.29
  C 40.88 984.10 60.19 1012.40 82.02 1036.79
  C 137.17 1098.40 195.28 1154.26 260.35 1203.88
  C 308.26 1240.42 358.87 1271.65 412.18 1297.58
  C 420.79 1301.77 428.44 1305.30 435.13 1308.19
  C 435.33 1308.27 435.53 1308.07 435.44 1307.87
  C 419.30 1273.80 404.50 1238.22 385.09 1206.17
  C 378.73 1195.66 372.08 1188.10 362.83 1178.39
  C 351.84 1166.85 335.98 1151.56 324.33 1139.19
  C 264.72 1075.91 212.55 1005.19 171.89 928.64
  C 147.36 882.46 128.12 834.62 114.19 785.11
  C 97.01 724.10 89.93 662.07 92.95 599.02
  C 93.54 586.74 95.04 570.23 97.47 549.49
  C 99.62 531.18 102.14 512.10 105.04 492.25
  C 105.22 491.04 105.49 489.94 105.84 488.97
  C 105.85 488.94 105.89 488.94 105.89 488.97
  C 107.40 503.56 108.18 511.12 108.23 511.65
  C 110.97 540.24 112.10 570.69 117.25 601.50
  C 135.84 712.83 173.62 822.14 228.97 920.53
  C 248.12 954.58 269.48 986.72 293.04 1016.96
  C 293.21 1017.17 293.54 1017.07 293.57 1016.80
  C 295.92 991.05 297.64 968.04 298.73 947.75
  C 299.37 935.92 299.48 922.62 299.06 910.75
  C 298.67 899.77 295.72 891.04 291.67 879.09
  C 291.31 878.03 286.58 864.59 277.48 838.78
  C 276.29 835.40 274.50 829.10 272.12 819.88
  C 246.65 721.16 238.09 617.53 249.38 516.58
  C 259.83 423.00 288.75 331.81 336.71 250.96
  C 350.33 228.00 364.19 207.61 378.30 189.79
  C 391.47 173.15 405.36 156.60 419.95 140.13
  C 420.03 140.04 420.17 140.02 420.27 140.09
  C 420.37 140.16 420.41 140.29 420.36 140.40
  C 416.71 148.88 410.80 160.32 400.08 181.33
  C 393.04 195.14 387.33 206.85 382.96 216.47
  C 322.43 349.65 294.94 494.38 301.69 640.50
  C 302.19 651.43 303.28 664.19 304.96 678.77
  C 306.39 691.19 308.10 706.53 310.11 724.78
  C 310.13 725.00 310.43 725.04 310.52 724.84
  C 318.02 707.69 327.48 692.21 337.83 676.36
  C 345.56 664.53 357.15 650.38 363.33 641.59
  C 368.05 634.87 371.78 629.90 373.50 622.75
  C 375.25 615.48 376.77 606.58 378.05 596.05
  C 379.75 582.04 381.39 571.01 382.96 562.98
  C 392.92 512.19 407.91 462.93 427.94 415.20
  C 456.81 346.41 493.28 282.21 537.35 222.60
  C 582.67 161.29 637.20 110.16 700.93 69.19
  C 743.39 41.89 789.62 19.09 836.76 0.00
  L 837.38 0.00
  Z
  M 556.78 583.99
  C 556.84 583.97 556.96 583.85 557.13 583.63
  C 572.90 564.08 590.62 545.86 609.83 529.24
  C 620.48 520.02 628.31 513.86 634.69 504.67
  C 652.80 478.56 668.55 457.56 681.92 441.67
  C 697.42 423.24 713.92 406.16 731.42 390.42
  C 744.38 378.76 759.08 366.59 775.52 353.91
  C 790.58 342.29 811.72 328.56 824.75 317.50
  C 825.30 317.03 825.67 316.55 825.85 316.06
  C 826.00 315.63 825.66 315.19 825.21 315.23
  C 801.28 317.31 777.54 320.56 754.00 324.98
  C 745.49 326.58 735.89 328.98 725.21 332.18
  C 716.44 334.80 708.82 338.77 702.35 344.08
  C 671.02 369.78 645.60 402.30 624.05 437.31
  C 601.58 473.81 582.75 513.02 566.35 553.12
  C 562.60 562.29 559.75 569.85 557.80 575.80
  C 556.85 578.72 556.23 581.22 555.95 583.31
  C 555.89 583.77 556.34 584.14 556.78 583.99
  Z
  M 564.87 421.52
  C 564.68 421.49 564.44 421.53 564.15 421.65
  C 544.89 429.69 530.40 435.86 520.68 440.17
  C 503.76 447.66 487.35 456.27 473.26 467.47
  C 472.76 467.86 472.32 468.32 471.94 468.83
  C 470.19 471.18 468.92 473.29 468.13 475.14
  C 459.62 495.17 453.97 517.51 447.86 538.80
  C 423.22 624.54 424.93 715.27 441.03 802.45
  C 441.25 803.64 441.77 804.70 442.59 805.63
  C 443.08 806.18 443.96 806.10 444.32 805.47
  C 445.27 803.85 446.38 801.33 447.65 797.92
  C 453.54 782.09 456.60 773.83 456.85 773.13
  C 457.32 771.75 459.66 767.41 463.86 760.10
  C 472.18 745.62 476.90 729.58 478.01 711.99
  C 478.43 705.30 478.83 697.66 479.22 689.07
  C 480.32 664.61 484.07 640.29 489.33 616.28
  C 501.62 560.21 522.65 505.14 549.36 454.58
  C 557.33 439.48 561.60 433.29 565.20 422.09
  C 565.28 421.84 565.13 421.57 564.87 421.52
  Z
  M 537.19 815.39
  C 538.98 800.35 540.81 786.27 542.66 773.16
  C 550.37 718.45 563.50 665.18 583.79 613.89
  C 594.02 588.03 610.17 556.72 618.82 534.82
  C 618.99 534.37 619.08 534.07 619.07 533.92
  C 619.02 533.24 618.18 532.94 617.70 533.44
  C 599.63 552.22 582.93 570.97 567.60 589.69
  C 562.84 595.49 557.02 603.17 553.45 608.95
  C 550.77 613.28 548.92 616.70 547.90 619.21
  C 534.36 652.30 529.78 689.56 529.11 725.26
  C 528.50 757.43 530.31 787.20 535.81 815.44
  C 535.88 815.78 536.18 816.02 536.52 816.00
  C 536.87 815.99 537.15 815.73 537.19 815.39
  Z
  M 477.20 1069.35
  C 469.26 1043.01 464.46 1010.30 458.49 988.96
  C 456.50 981.84 453.26 975.57 449.80 969.45
  C 445.60 962.03 440.88 953.79 435.64 944.73
  C 429.99 934.98 426.17 926.59 421.69 916.06
  C 402.20 870.24 388.48 822.71 380.53 773.46
  C 376.96 751.37 375.96 729.29 374.16 706.05
  C 372.89 689.78 371.78 678.11 370.81 671.06
  C 370.54 669.11 370.15 666.68 369.64 663.75
  C 369.56 663.26 368.93 663.10 368.62 663.50
  C 355.37 680.69 343.90 698.41 334.21 716.65
  C 327.87 728.58 323.41 740.45 320.82 752.26
  C 318.69 762.00 318.63 771.11 320.66 779.58
  C 321.93 784.86 324.17 792.55 327.38 802.64
  C 333.78 822.72 339.55 839.88 344.69 854.11
  C 370.84 926.55 410.12 992.61 459.66 1051.09
  C 465.55 1058.06 471.17 1064.28 476.51 1069.76
  C 476.81 1070.07 477.33 1069.76 477.20 1069.35
  Z
  M 475.71 764.46
  C 470.43 781.30 465.59 798.55 461.19 816.22
  C 458.93 825.33 457.18 833.50 455.93 840.74
  C 454.86 846.93 455.24 853.49 457.05 860.44
  C 459.40 869.45 461.77 877.18 464.15 883.61
  C 472.28 905.56 481.98 927.74 493.26 950.16
  C 507.52 978.48 524.76 1004.40 544.66 1026.84
  C 550.00 1032.86 555.14 1038.57 560.09 1043.96
  C 560.15 1044.03 560.25 1044.04 560.32 1043.99
  C 560.40 1043.94 560.42 1043.84 560.38 1043.76
  C 549.45 1022.57 539.42 1001.89 530.31 981.70
  C 504.46 924.44 485.66 863.01 480.47 801.21
  C 479.02 783.95 478.83 776.22 476.31 764.48
  C 476.24 764.17 475.80 764.15 475.71 764.46
  Z
  M 313.38 933.49
  C 312.53 961.26 311.89 987.43 311.47 1012.00
  C 311.27 1023.37 311.24 1032.79 311.38 1040.26
  C 311.39 1040.96 311.60 1041.64 312.00 1042.22
  C 315.32 1047.16 321.05 1054.73 325.18 1059.45
  C 346.40 1083.73 364.52 1103.31 379.55 1118.19
  C 445.64 1183.66 522.56 1234.16 610.30 1269.69
  C 624.15 1275.30 637.87 1280.28 651.44 1284.63
  C 651.81 1284.75 652.13 1284.34 651.93 1284.01
  C 650.83 1282.22 649.42 1280.65 647.69 1279.30
  C 642.37 1275.14 637.64 1271.90 633.05 1268.42
  C 632.50 1268.00 632.00 1267.53 631.55 1267.00
  C 628.26 1263.11 622.20 1256.31 613.39 1246.61
  C 598.50 1230.21 582.28 1216.26 564.74 1204.76
  C 559.17 1201.11 550.97 1195.96 540.16 1189.33
  C 525.11 1180.10 509.36 1168.93 492.92 1155.81
  C 446.18 1118.50 406.08 1074.53 369.65 1024.73
  C 363.32 1016.08 358.40 1008.64 354.89 1002.43
  C 338.76 973.89 328.51 955.87 324.13 948.38
  C 321.34 943.59 318.11 938.52 314.46 933.17
  C 314.14 932.70 313.40 932.92 313.38 933.49
  Z
  M 1372.97 979.10
  C 1372.84 978.83 1372.44 978.91 1372.43 979.21
  C 1369.42 1092.28 1344.13 1208.32 1278.90 1302.64
  C 1278.70 1302.92 1278.61 1303.14 1278.62 1303.29
  C 1278.62 1303.46 1278.81 1303.56 1278.96 1303.47
  C 1308.93 1283.88 1334.08 1259.29 1354.41 1229.70
  C 1366.31 1212.38 1374.43 1193.15 1378.76 1172.00
  C 1386.67 1133.41 1388.11 1094.71 1385.18 1055.50
  C 1383.46 1032.48 1380.95 1012.10 1377.66 994.36
  C 1376.61 988.74 1375.05 983.65 1372.97 979.10
  Z
  M 696.72 1218.45
  C 696.86 1218.47 696.94 1218.29 696.83 1218.20
  C 669.96 1196.29 646.27 1179.02 614.10 1154.95
  C 576.74 1127.01 542.34 1098.53 511.93 1064.75
  C 506.94 1059.21 502.39 1053.47 498.26 1047.52
  C 490.38 1036.17 485.64 1028.79 478.19 1019.77
  C 477.88 1019.40 477.29 1019.72 477.43 1020.18
  C 484.48 1043.13 490.49 1066.45 495.48 1090.14
  C 495.66 1091.03 496.10 1091.86 496.75 1092.51
  C 502.19 1098.04 508.29 1103.77 515.06 1109.69
  C 562.03 1150.75 616.20 1183.19 673.43 1209.32
  C 680.58 1212.59 687.56 1215.45 694.35 1217.91
  C 695.04 1218.16 695.83 1218.34 696.72 1218.45
  Z
  M 1284.03 1174.04
  C 1284.02 1173.72 1283.61 1173.61 1283.43 1173.87
  C 1253.13 1218.88 1218.26 1260.03 1178.81 1297.31
  C 1147.48 1326.93 1113.04 1353.61 1076.07 1374.83
  C 1068.37 1379.25 1062.16 1382.51 1058.79 1385.97
  C 1058.28 1386.49 1058.68 1387.37 1059.40 1387.32
  C 1071.86 1386.50 1084.06 1384.22 1096.82 1381.37
  C 1106.09 1379.30 1112.36 1377.83 1115.62 1376.95
  C 1141.49 1369.93 1161.75 1355.83 1179.48 1336.48
  C 1221.29 1290.85 1259.10 1240.48 1282.32 1183.08
  C 1283.59 1179.95 1284.16 1176.93 1284.03 1174.04
  Z
  M 414.56 1222.49
  C 414.52 1222.77 414.59 1223.11 414.76 1223.50
  C 427.87 1253.67 440.33 1281.39 457.64 1306.10
  C 461.86 1312.12 465.75 1316.92 469.31 1320.50
  C 474.62 1325.85 482.03 1329.34 489.01 1332.26
  C 511.10 1341.48 533.37 1349.62 555.81 1356.68
  C 609.60 1373.59 664.17 1385.26 719.51 1391.68
  C 748.68 1395.06 777.26 1396.34 805.24 1395.51
  C 820.88 1395.04 836.12 1393.67 850.96 1391.40
  C 853.04 1391.08 854.88 1390.65 856.49 1390.12
  C 857.04 1389.94 857.18 1389.23 856.73 1388.86
  C 853.50 1386.23 849.80 1383.99 845.61 1382.15
  C 834.38 1377.22 829.44 1375.43 819.06 1370.21
  C 798.05 1359.64 772.70 1358.07 749.84 1355.36
  C 741.13 1354.32 731.06 1352.67 719.63 1350.41
  C 670.06 1340.58 622.63 1327.25 577.35 1310.40
  C 542.58 1297.47 507.11 1280.49 470.95 1259.47
  C 451.76 1248.32 432.73 1232.63 415.22 1222.17
  C 414.95 1222.01 414.60 1222.18 414.56 1222.49
  Z
  M 621.47 1241.44
  C 633.54 1253.31 645.41 1263.73 657.06 1272.71
  C 674.19 1285.91 692.71 1295.73 712.64 1302.16
  C 721.33 1304.97 731.25 1307.23 742.39 1308.92
  C 766.02 1312.50 790.61 1313.39 812.78 1313.87
  C 834.27 1314.34 859.59 1310.78 883.57 1306.96
  C 884.44 1306.82 885.83 1306.38 887.73 1305.64
  C 888.40 1305.38 888.37 1304.42 887.68 1304.21
  C 884.07 1303.12 876.34 1301.76 864.48 1300.11
  C 838.67 1296.54 810.71 1293.98 785.60 1289.66
  C 729.33 1280.00 674.77 1263.70 621.92 1240.77
  C 621.50 1240.59 621.15 1241.12 621.47 1241.44
  Z
  M 967.08 1536.33
  C 967.21 1536.45 967.41 1536.54 967.69 1536.59
  C 995.83 1541.90 1025.60 1550.87 1054.49 1557.76
  C 1072.57 1562.07 1090.43 1565.07 1108.07 1566.77
  C 1108.74 1566.83 1109.42 1566.67 1110.00 1566.31
  C 1114.82 1563.28 1120.39 1559.41 1126.71 1554.70
  C 1150.20 1537.20 1173.48 1517.24 1196.55 1494.82
  C 1258.32 1434.78 1307.16 1366.03 1343.06 1288.57
  C 1346.29 1281.60 1348.89 1275.28 1350.86 1269.62
  C 1351.87 1266.70 1352.42 1263.93 1352.51 1261.32
  C 1352.52 1260.88 1352.01 1260.63 1351.67 1260.91
  C 1340.71 1269.96 1328.72 1278.31 1315.70 1285.95
  C 1303.80 1292.93 1293.22 1299.43 1283.95 1305.44
  C 1274.38 1311.64 1266.35 1318.29 1259.88 1325.39
  C 1254.85 1330.90 1250.23 1336.36 1246.02 1341.77
  C 1237.08 1353.24 1228.99 1363.40 1221.74 1372.25
  C 1218.09 1376.71 1212.76 1382.38 1205.76 1389.25
  C 1170.65 1423.72 1132.01 1453.42 1089.84 1478.35
  C 1050.47 1501.62 1009.60 1520.74 967.21 1535.73
  C 966.96 1535.82 966.89 1536.14 967.08 1536.33
  Z
  M 834.25 1362.84
  C 845.87 1367.93 857.03 1372.34 867.72 1376.07
  C 879.45 1380.17 888.01 1383.15 899.27 1382.60
  C 913.34 1381.92 927.55 1379.69 941.90 1375.90
  C 1005.12 1359.20 1063.77 1327.90 1114.29 1286.04
  C 1115.10 1285.37 1115.63 1284.80 1115.88 1284.33
  C 1116.22 1283.68 1115.53 1282.97 1114.87 1283.30
  C 1088.76 1296.48 1062.13 1308.30 1034.99 1318.75
  C 971.26 1343.29 902.89 1361.13 834.33 1362.46
  C 834.12 1362.46 834.05 1362.75 834.25 1362.84
  Z
  M 1115.80 1396.08
  C 1115.91 1395.91 1115.80 1395.68 1115.60 1395.68
  L 1043.64 1392.68
  C 1042.49 1392.63 1041.33 1392.82 1040.25 1393.24
  C 981.30 1415.99 921.69 1434.09 860.05 1443.58
  C 804.15 1452.19 747.81 1452.80 691.03 1445.42
  C 672.53 1443.01 653.75 1439.83 634.69 1435.86
  C 634.38 1435.80 634.19 1436.19 634.43 1436.39
  C 658.70 1457.14 685.82 1483.37 705.94 1501.55
  C 710.91 1506.04 715.48 1509.96 719.65 1513.31
  C 719.89 1513.51 720.17 1513.65 720.47 1513.73
  C 721.02 1513.88 722.27 1513.93 724.24 1513.90
  C 822.24 1512.13 920.44 1493.44 1010.28 1454.77
  C 1046.19 1439.32 1080.39 1420.45 1112.88 1398.14
  C 1114.77 1396.84 1115.75 1396.15 1115.80 1396.08
  Z"
/>
</svg>
